<svg xmlns="http://www.w3.org/2000/svg" height="1634.667" width="1634.667"><defs><radialGradient id="b" spreadMethod="pad" gradientTransform="matrix(6130 0 0 -6130 6130 6130)" gradientUnits="userSpaceOnUse" r="1" cy="0" cx="0" fy="0" fx="0"><stop offset="0" stop-color="#f7f7f6"/><stop offset="1" stop-color="#fff"/></radialGradient><clipPath id="a" clipPathUnits="userSpaceOnUse"><path d="M12260 6130C12260 2744.49 9515.51 0 6130 0S0 2744.49 0 6130s2744.49 6130 6130 6130 6130-2744.49 6130-6130z"/></clipPath></defs><g clip-path="url(#a)" transform="matrix(.13333 0 0 -.13333 0 1634.667)"><path d="M12260 6130C12260 2744.49 9515.51 0 6130 0S0 2744.49 0 6130s2744.49 6130 6130 6130 6130-2744.49 6130-6130" fill="url(#b)"/></g><path d="M899.425 817.836c.216-44.292-36.557-81.673-80.93-82.27-44.831-.6-82.634 36.593-82.902 81.565-.261 44.234 36.539 81.677 80.895 82.305 44.808.635 82.717-36.663 82.937-81.6zm-730.408 185.133c144.148 3.282 283.708-7.026 417.191-62.269-6.23-16.607-13.152-32.043-17.747-48.144-4.629-16.23-8.21-32.995-9.842-49.76-1.118-11.47-5.054-16.925-16.186-19.483-55.874-12.833-108.75-33.981-160.185-58.977-64.019-31.112-124.197-68.567-181.96-110.02-10.161-7.292-20.244-14.695-31.97-23.213 77.571-58.378 125.627-136.768 164.66-225.207 76.245 103.015 158.203 197.785 261.57 272.997 2.308-2.457 4.279-4.064 5.643-6.08 19.004-28.084 41.944-52.285 70.402-70.924 6.103-3.996 7.415-8.154 5.351-15.25-35.513-122.054-37.937-246.586-27.313-372.052 1.176-13.88 3.029-27.72 4.206-41.6.548-6.467 2.074-10.334 9.934-10.32 103.778.226 207.557.173 311.336.253 1.166 0 2.332.773 5.317 1.827-72.841 121.586-134.992 246.938-152.832 391.41 11.695 1.208 22.721.87 32.867 3.698 22.565 6.29 44.889 13.621 66.896 21.669 8.813 3.223 13.99 3.467 21.168-4.276 57.962-62.525 122.904-117.044 193.701-164.465 33.887-22.699 68.616-44.143 103.357-66.407 64.502 102.973 147.339 188.805 221.446 285.428-144.128-3.25-284.026 6.584-415.858 61.672 8.263 26.725 16.278 52.303 24.003 77.967 1.363 4.528 1.859 9.396 2.176 14.146 1.705 25.59-.352 21.027 22.82 27.023 80.783 20.903 156.193 54.517 227.184 97.715 44.208 26.905 86.635 56.75 129.835 85.325 2.853 1.89 5.426 4.207 10.16 7.916-76.76 58.168-125.24 136.217-164.255 225.033-76.339-102.928-158.335-197.641-261.761-272.8-9.758 12.044-18.064 24.316-28.386 34.559-15.072 14.953-31.265 28.843-47.669 42.35-5.603 4.613-7.404 8.245-5.352 15.295 35.644 122.48 38.275 247.414 27.228 373.315-1.219 13.893-2.279 27.84-4.655 41.547-.606 3.493-5.968 8.813-9.162 8.826-103.778.427-207.558.307-311.336.227-1.2 0-2.4-.653-5.702-1.613 72.848-121.707 135.228-247.002 153.003-391.28-5.227-.812-9.712-1.894-14.244-2.152-29.12-1.656-56.633-9.526-82.74-22.09-10.123-4.87-16.441-5.42-25.445 4.248-58.083 62.364-123.03 116.863-194.144 163.87-33.339 22.037-67.115 43.417-101.292 65.482-64.498-102.852-147.279-188.725-221.418-285.416" fill="#fff"/></svg>